<svg xmlns="http://www.w3.org/2000/svg" viewBox="0 0 512 512"><path fill-rule="evenodd" d="M256.21 0C114.53 0 0 115.38 0 258.12c0 114.1 73.39 210.68 175.19 244.86 12.73 2.57 17.4-5.56 17.4-12.39 0-5.98-.43-26.5-.43-47.86-71.27 15.38-86.11-30.77-86.11-30.77-11.46-29.92-28.43-37.6-28.43-37.6-23.32-15.82 1.7-15.82 1.7-15.82 25.88 1.71 39.46 26.5 39.46 26.5 22.9 39.3 59.8 28.2 74.65 21.36 2.12-16.66 8.91-28.2 16.12-34.61-56.84-5.99-116.65-28.2-116.65-127.35 0-28.2 10.17-51.28 26.3-69.23-2.55-6.4-11.46-32.9 2.54-68.38 0 0 21.64-6.83 70.42 26.5a246 246 0 0 1 64.05-8.55c21.64 0 43.69 3 64.05 8.55 48.79-33.33 70.42-26.5 70.42-26.5 14 35.47 5.09 61.97 2.54 68.38 16.55 17.95 26.3 41.02 26.3 69.23 0 99.14-59.8 120.93-117.07 127.35 9.33 8.12 17.39 23.5 17.39 47.86 0 34.61-.42 62.4-.42 70.94 0 6.83 4.67 14.96 17.39 12.4C438.6 468.78 512 372.2 512 258.11 512.42 115.38 397.47 0 256.2 0" clip-rule="evenodd"/></svg>