<?xml version="1.0" encoding="UTF-8" standalone="no"?>
<!-- Created with Inkscape (http://www.inkscape.org/) -->

<svg
   width="512"
   height="512"
   viewBox="0 0 512 512"
   version="1.1"
   id="svg1"
   xmlns="http://www.w3.org/2000/svg"
   xmlns:svg="http://www.w3.org/2000/svg">
  <defs
     id="defs1" />
  <path
     d="m 242.40106,485.48208 q -50.31607,0 -93.83267,-18.35857 Q 105.05179,448.085 72.414342,414.7676 39.776885,380.77025 21.418328,336.57371 3.05976,292.37716 3.05976,242.06109 q 0,-50.99602 18.358568,-94.51262 Q 39.776885,103.35192 71.734391,70.034524 104.37185,36.717125 147.2085,18.358568 190.72509,0 241.04117,0 q 50.31607,0 93.15272,18.358568 43.5166,18.358557 76.15406,51.675956 32.63744,33.317396 50.31606,77.513946 18.35857,44.19655 18.35857,95.19257 0,50.31607 -18.35857,94.51261 -17.67862,44.19655 -50.31606,77.51395 -31.95751,33.3174 -75.47411,52.35591 -42.83666,18.35857 -92.47278,18.35857 z M 468.14342,512 247.16069,291.01727 288.63745,249.5405 508.94024,470.52324 Z M 241.04117,424.28686 q 50.31607,0 89.07304,-23.1182 38.75697,-23.79814 60.51527,-64.59495 22.43825,-41.47676 22.43825,-94.51262 0,-39.43692 -12.91899,-72.07437 Q 387.9097,136.66932 364.7915,112.19123 341.6733,87.71315 310.39575,74.794153 279.1182,61.195215 241.04117,61.195215 q -50.31608,0 -89.07304,23.118198 -38.75697,23.118197 -61.19522,63.915007 -21.758305,40.79681 -21.758305,93.83267 0,39.43692 12.918987,73.43427 12.918996,33.3174 35.357238,57.79548 23.1182,23.79814 54.39576,37.39708 31.9575,13.59894 69.35458,13.59894 z"
     id="text1"
     style="font-size:144px;font-family:Outfit;-inkscape-font-specification:Outfit;fill:#000000;fill-opacity:1;stroke-width:1.00285"
     aria-label="Q" />
</svg>
